<?xml version="1.0" ?>
<!-- Uploaded to: SVG Repo, www.svgrepo.com, Generator: SVG Repo Mixer Tools -->
<svg width="800px" height="800px" viewBox="0 0 132.29168 132.29168" id="svg8" version="1.1" xmlns="http://www.w3.org/2000/svg" xmlns:cc="http://creativecommons.org/ns#" xmlns:dc="http://purl.org/dc/elements/1.1/" xmlns:inkscape="http://www.inkscape.org/namespaces/inkscape" xmlns:rdf="http://www.w3.org/1999/02/22-rdf-syntax-ns#" xmlns:sodipodi="http://sodipodi.sourceforge.net/DTD/sodipodi-0.dtd" xmlns:svg="http://www.w3.org/2000/svg">
<defs id="defs2"/>
<g id="layer1" transform="translate(684.30458,637.91109)">
<g id="Fruits-7" transform="translate(-304.14043,128.40416)">
<rect height="132.29167" id="rect3009" rx="1.4650217" ry="1.4650217" style="display:inline;fill:#f9f9f9;fill-opacity:1;stroke:none;stroke-width:2;stroke-linecap:round;stroke-linejoin:round;stroke-miterlimit:4;stroke-dasharray:none;stroke-opacity:1;paint-order:stroke fill markers" width="132.29167" x="-380.16415" y="-766.31525"/>
<path d="m -309.79688,-749.63086 c -5.43809,0 -10.37227,1.0833 -14.07617,2.93555 -1.19669,0.59844 -2.22357,1.32489 -3.15039,2.10547 -5.96527,2.08255 -9.36896,8.32308 -11.42968,13.84179 -1.851,4.95704 -2.50631,9.0124 -2.64454,9.91211 -5.06304,2.21472 -9.49598,6.95492 -12.5957,15.1211 -5.6029,14.7608 3.61988,34.45495 24.77344,46.66992 21.15234,12.21428 42.99652,10.50847 52.8125,-1.89453 2.75689,-3.48347 3.8567,-6.14941 3.18164,-8.54688 -0.67506,-2.39746 -2.80319,-3.6863 -5.06836,-4.95703 -4.53034,-2.54145 -10.43987,-5.07499 -13.29297,-12.64453 -3.28726,-8.72142 -14.6223,-22.7723 -27.33984,-30.35742 -4.13082,-2.46374 -8.43591,-4.11559 -12.68555,-4.67188 -0.17524,-3.92873 1.13017,-8.37624 2.62109,-12.30859 1.1418,1.51114 2.79992,2.81288 4.81836,3.82226 3.7039,1.85225 8.63808,2.93555 14.07617,2.93555 5.43809,0 10.37228,-1.0833 14.07618,-2.93555 3.70389,-1.85224 6.38281,-4.61823 6.38281,-8.04687 0,-3.42865 -2.67892,-6.19268 -6.38281,-8.04492 -3.7039,-1.85225 -8.63809,-2.93555 -14.07618,-2.93555 z m 0,3 c 5.0327,0 9.57646,1.03993 12.73438,2.61914 3.15792,1.57921 4.72461,3.55375 4.72461,5.36133 0,1.80758 -1.56669,3.78407 -4.72461,5.36328 -3.15792,1.57921 -7.70168,2.61914 -12.73438,2.61914 -5.03269,0 -9.57645,-1.03993 -12.73437,-2.61914 -2.42549,-1.21294 -3.89218,-2.65907 -4.45117,-4.08398 1.08353,-0.17106 3.62542,-0.59633 8.0625,-1.03907 5.27765,-0.52661 11.5818,-0.82614 15.10547,-0.15625 a 1.5,1.5 0 0 0 1.75195,-1.19336 1.5,1.5 0 0 0 -1.19336,-1.7539 c -4.27505,-0.81275 -10.58076,-0.4179 -15.96289,0.11914 -4.12024,0.41112 -6.05132,0.7451 -7.48633,0.9668 0.68579,-1.25891 2.03336,-2.51358 4.17383,-3.58399 3.15792,-1.57921 7.70168,-2.61914 12.73437,-2.61914 z m -20.55078,7.97852 c -1.91845,4.33671 -4.13282,10.53044 -3.95117,16.32617 -1.18238,0.0143 -2.3609,0.0686 -3.51953,0.30859 0.36785,-1.85219 0.96529,-4.43794 2.17578,-7.67969 1.22963,-3.29298 3.03401,-6.54525 5.29492,-8.95507 z m -3.0332,19.24609 c 4.19506,0.17932 8.73178,1.86406 13.2168,4.53906 11.96005,7.13334 23.23844,21.32467 26.07031,28.83789 3.26604,8.6651 10.34646,11.79659 14.63281,14.20118 2.14318,1.20229 3.37981,2.2072 3.64649,3.15429 0.26667,0.94709 -0.11588,2.67796 -2.64453,5.87305 -8.53221,10.78088 -28.68585,12.86284 -48.95899,1.15625 -20.27194,-11.70588 -28.36044,-30.12386 -23.4707,-43.00586 3.48126,-9.17135 8.20944,-13.24072 13.4414,-14.41406 1.30799,-0.29334 2.66806,-0.40157 4.06641,-0.3418 z m -13.08203,12.62891 c -0.72344,-0.003 -1.13715,0.37722 -1.37891,0.64062 -0.24175,0.2634 -0.38626,0.51343 -0.52343,0.78516 -0.27435,0.54345 -0.48965,1.18206 -0.69141,1.94922 -0.40352,1.53432 -0.71567,3.56327 -0.79297,5.83984 -0.1546,4.55313 0.59102,10.12939 3.95703,14.1875 a 1.5,1.5 0 0 0 2.11133,0.19531 1.5,1.5 0 0 0 0.19727,-2.11133 c -2.61595,-3.15381 -3.40739,-8.05263 -3.26758,-12.16992 0.0699,-2.05864 0.36256,-3.91447 0.69531,-5.17968 0.16616,-0.6318 0.35017,-1.12026 0.46875,-1.35547 1.5e-4,-3.1e-4 -1.5e-4,-0.002 0,-0.002 a 1.5,1.5 0 0 0 0.71875,-1.27148 1.5,1.5 0 0 0 -1.49414,-1.50781 z m 49.22461,19.0039 a 1.5,1.5 0 0 0 -0.4961,0.0742 1.5,1.5 0 0 0 -0.95703,1.89453 c 1.30185,3.9672 4.50273,11.95175 13.87696,17.20313 a 1.5,1.5 0 0 0 2.04297,-0.57617 1.5,1.5 0 0 0 -0.57618,-2.04102 c -8.50785,-4.76604 -11.26609,-11.78512 -12.49218,-15.52148 a 1.5,1.5 0 0 0 -1.39844,-1.03321 z" id="path3015" style="color:#000000;font-style:normal;font-variant:normal;font-weight:normal;font-stretch:normal;font-size:medium;line-height:normal;font-family:sans-serif;font-variant-ligatures:normal;font-variant-position:normal;font-variant-caps:normal;font-variant-numeric:normal;font-variant-alternates:normal;font-variant-east-asian:normal;font-feature-settings:normal;font-variation-settings:normal;text-indent:0;text-align:start;text-decoration:none;text-decoration-line:none;text-decoration-style:solid;text-decoration-color:#000000;letter-spacing:normal;word-spacing:normal;text-transform:none;writing-mode:lr-tb;direction:ltr;text-orientation:mixed;dominant-baseline:auto;baseline-shift:baseline;text-anchor:start;white-space:normal;shape-padding:0;shape-margin:0;inline-size:0;clip-rule:nonzero;display:inline;overflow:visible;visibility:visible;opacity:1;isolation:auto;mix-blend-mode:normal;color-interpolation:sRGB;color-interpolation-filters:linearRGB;solid-color:#000000;solid-opacity:1;vector-effect:none;fill:#2863a7;fill-opacity:1;fill-rule:nonzero;stroke:none;stroke-width:3;stroke-linecap:round;stroke-linejoin:miter;stroke-miterlimit:4;stroke-dasharray:none;stroke-dashoffset:0;stroke-opacity:1;color-rendering:auto;image-rendering:auto;shape-rendering:auto;text-rendering:auto;enable-background:accumulate;stop-color:#000000;stop-opacity:1"/>
</g>
</g>
</svg>